<svg width="36" height="34" viewBox="0 0 36 34" fill="none" xmlns="http://www.w3.org/2000/svg">
<g id="Group 3">
<path id="Ellipse 1" d="M35.7827 16.8175C35.7827 26.1099 27.9654 33.6429 18.3224 33.6429C8.67931 33.6429 0.862061 26.1099 0.862061 16.8175C0.862061 7.52505 8.67931 -0.00793457 18.3224 -0.00793457C27.9654 -0.00793457 35.7827 7.52505 35.7827 16.8175Z" fill="white"/>
<path id="Ellipse 1 (Stroke)" fill-rule="evenodd" clip-rule="evenodd" d="M18.3224 31.1032C26.6523 31.1032 33.243 24.6194 33.243 16.8175C33.243 9.01553 26.6523 2.53175 18.3224 2.53175C9.99245 2.53175 3.40174 9.01553 3.40174 16.8175C3.40174 24.6194 9.99245 31.1032 18.3224 31.1032ZM18.3224 33.6429C27.9654 33.6429 35.7827 26.1099 35.7827 16.8175C35.7827 7.52505 27.9654 -0.00793457 18.3224 -0.00793457C8.67931 -0.00793457 0.862061 7.52505 0.862061 16.8175C0.862061 26.1099 8.67931 33.6429 18.3224 33.6429Z" fill="black"/>
<path id="Ellipse 3" d="M30.0685 16.8174C30.0685 23.3046 24.8096 28.5635 18.3224 28.5635C11.8353 28.5635 6.57642 23.3046 6.57642 16.8174C6.57642 10.3303 11.8353 5.07141 18.3224 5.07141C24.8096 5.07141 30.0685 10.3303 30.0685 16.8174Z" fill="white"/>
<path id="Ellipse 3 (Stroke)" fill-rule="evenodd" clip-rule="evenodd" d="M18.3224 26.0238C23.407 26.0238 27.5288 21.902 27.5288 16.8174C27.5288 11.7329 23.407 7.61109 18.3224 7.61109C13.2379 7.61109 9.1161 11.7329 9.1161 16.8174C9.1161 21.902 13.2379 26.0238 18.3224 26.0238ZM18.3224 28.5635C24.8096 28.5635 30.0685 23.3046 30.0685 16.8174C30.0685 10.3303 24.8096 5.07141 18.3224 5.07141C11.8353 5.07141 6.57642 10.3303 6.57642 16.8174C6.57642 23.3046 11.8353 28.5635 18.3224 28.5635Z" fill="black"/>
</g>
</svg>
